# xmcd
# 
# Track frame offsets:
#     150
#     20148
#     40418
#     57015
#     75322
#     96515
#     115539
#     134553
#     151735
#     168823
#     187431
#     207523
# 
# Disc length: 3023
# 
# Revision: 4
# Processed by: cddbd v1.5.2PL0 Copyright (c) Steve Scherf et al.
# Submitted via: BonkEnc v1.0.8
# 
DISCID=a10bcd0c
DTITLE=パク　ヨンハ - 期別-キビョル-
DYEAR=2004
DGENRE=Pop
TTITLE0=期別（キビョル）
TTITLE1=時間をまた戻しても
TTITLE2=別れが．．．（別れた後でも君を恋しく想う）
TTITLE3=だから　ごめんね
TTITLE4=そうだね　愛は
TTITLE5=僕のための慰め
TTITLE6=知らない話
TTITLE7=Dear Love
TTITLE8=I Love So Much
TTITLE9=もう一度
TTITLE10=期別〜あの頃の僕じゃない（日本語詞バージョン）
TTITLE11=初めて出逢った日のように（日本語詞バージョン）
EXTD=YEAR: 2004
EXTT0=
EXTT1=
EXTT2=
EXTT3=
EXTT4=
EXTT5=
EXTT6=
EXTT7=
EXTT8=
EXTT9=
EXTT10=
EXTT11=
PLAYORDER=
